<?xml version="1.0" encoding="UTF-8"?>
<!DOCTYPE svg PUBLIC "-//W3C//DTD SVG 1.1//EN" "http://www.w3.org/Graphics/SVG/1.1/DTD/svg11.dtd">
<!-- Creator: CorelDRAW 2019 (64-Bit) -->
<svg xmlns="http://www.w3.org/2000/svg" xml:space="preserve" width="34.9307mm" height="40mm" version="1.1" shape-rendering="geometricPrecision" text-rendering="geometricPrecision" image-rendering="optimizeQuality" fill-rule="evenodd" clip-rule="evenodd"
viewBox="0 0 3492 3998.78"
 xmlns:xlink="http://www.w3.org/1999/xlink">
 <g id="Layer_x0020_1">
  <metadata id="CorelCorpID_0Corel-Layer"/>
  <g id="_1996677961792">
   <path fill="#64CC1E" d="M813.81 939.06l0 821.76c0,14.8 4.94,24.67 14.8,34.53l145.91 145.91 0 0.03 736.96 736.96c19.71,19.71 49.33,19.71 69.05,0l1696.68 -1696.66 0.45 -0.47 0.46 -0.46 0.43 -0.46 0.01 0 0.44 -0.46 0.42 -0.47 0.43 -0.46 0 -0.01 0.41 -0.45 0.01 0 0.4 -0.47 0.4 -0.47 0.01 0 0.39 -0.47 0.38 -0.46 0.01 0 0.37 -0.47 0.01 -0.01 0.36 -0.47 0.01 0 0.36 -0.47 0.01 0 0.35 -0.48 0.35 -0.46 0.01 -0.01 0.32 -0.47 0.01 -0.01 0.33 -0.48 0.01 0 0.32 -0.48 0.01 0 0.31 -0.48 0.01 -0.01 0.31 -0.48 0.01 -0.01 0.29 -0.48 0.01 0 0.3 -0.49 0.01 -0.01 0.56 -0.98 0.01 -0.01 0.27 -0.49 0.01 -0.01 0.26 -0.49 0.01 -0.01 0.51 -1.01 0.01 0 0.24 -0.51 0.01 0 0.23 -0.51 0.01 0 0.23 -0.52 0.01 0 0.22 -0.52 0.01 0 0.2 -0.53 0.01 0 0.21 -0.53 0.01 0 0.39 -1.07 0.01 -0.01 0.55 -1.63 0.01 0 0.15 -0.55 0.01 0 0.15 -0.56 0.02 -0.01 0.29 -1.13 0.01 0 0.13 -0.56 0.01 -0.02 0.12 -0.57 0.01 0 0.12 -0.58 0.01 -0.01 0.11 -0.59 0.01 0 0.1 -0.58 0.01 -0.01 0.1 -0.6 0.01 0 0.09 -0.6 0.01 -0.01 0.07 -0.61 0.01 0 0.08 -0.62 0.01 0 0.07 -0.62 0.01 0 0.05 -0.63 0.01 0 0.06 -0.63 0.01 0 0.04 -0.64 0.01 0 0.03 -0.66 0.02 0 0.03 -0.65 0.01 0 0.02 -0.66 0.01 0 0.01 -0.68 0.01 0 0.01 -0.67 0.02 0 0 -0.68 0.01 -0.69 0 -823.68 -0.01 0 -0.04 -2.07 -0.01 0 -0.1 -2.02 -0.01 0 -0.18 -1.99 -0.01 0 -0.26 -1.95 -0.01 -0.01 -0.33 -1.9 -0.01 -0.01 -0.4 -1.87 -0.01 0 -0.47 -1.83 -0.01 -0.01 -0.54 -1.78 -0.01 -0.01 -0.6 -1.75 -0.01 0 -0.66 -1.71 -0.01 -0.01 -0.72 -1.67 -0.01 0 -0.79 -1.63 -0.85 -1.59 -0.01 0 -0.89 -1.53 -0.01 -0.01 -0.96 -1.49 -0.01 0 -1 -1.46 -0.01 0 -1.06 -1.4 -0.01 -0.01 -1.11 -1.36 -0.01 0 -1.15 -1.32 -1.21 -1.26 0 -0.01 -1.25 -1.22 -1.28 -1.17 -0.01 0 -1.33 -1.12 0 -0.01 -1.37 -1.07 0 -0.01 -1.4 -1.02 -1.44 -0.98 -0.01 0 -1.47 -0.92 -1.5 -0.87 -1.53 -0.83 -1.56 -0.77 -1.59 -0.72 -1.6 -0.66 -1.64 -0.6 0 -0.01 -1.64 -0.55 0 -0.01 -1.67 -0.49 -1.68 -0.44 -1.71 -0.39 -1.7 -0.33 -1.72 -0.27 -1.73 -0.21 0 -0.01 -1.74 -0.15 -1.74 -0.1 -1.75 -0.03 -1.75 0.02 0 0.01 -1.75 0.08 -1.74 0.15 -1.74 0.21 -0.01 0 -1.73 0.27 -1.73 0.34 -0.01 0 -1.72 0.4 -1.71 0.45 0 0.02 -1.69 0.52 -1.69 0.6 -1.66 0.65 -0.01 0.01 -1.65 0.72 0 0.01 -1.63 0.78 0 0.01 -1.61 0.85 0 0.01 -1.57 0.92 -0.01 0 -1.56 1 -1.53 1.07 0 0.01 -1.5 1.13 0 0.01 -1.47 1.2 0 0.01 -1.45 1.27 0 0.01 -1.4 1.34 0 0.01 -1627.63 1627.61c-19.73,19.71 -49.33,19.71 -69.05,0l-813.81 -811.95c-29.58,-29.59 -83.84,-9.88 -83.84,34.53z"/>
   <path fill="#1979FF" d="M473.47 498.19l0 823.68c0,44.39 -54.24,64.12 -83.83,34.52l-374.86 -374.85c-9.87,-9.88 -14.79,-19.72 -14.79,-34.52l0 -823.68c0,-44.39 54.24,-64.11 83.84,-34.52l374.84 374.85c9.88,9.86 14.8,19.73 14.8,34.52z"/>
   <path fill="#1979FF" d="M1780.51 3166.49l1627.63 -1627.61 0 -0.01 1.4 -1.34 0 -0.01 1.45 -1.27 0 -0.01 1.47 -1.2 0 -0.01 1.5 -1.13 0 -0.01 1.53 -1.07 1.56 -1 0.01 0 1.57 -0.92 0 -0.01 1.61 -0.85 0 -0.01 1.63 -0.78 0 -0.01 1.65 -0.72 0.01 -0.01 1.66 -0.65 1.69 -0.6 1.69 -0.52 0 -0.02 1.71 -0.45 1.72 -0.4 0.01 0 1.73 -0.34 1.73 -0.27 0.01 0 1.74 -0.21 1.74 -0.15 1.75 -0.08 0 -0.01 1.75 -0.02 1.75 0.03 1.74 0.1 1.74 0.15 0 0.01 1.73 0.21 1.72 0.27 1.7 0.33 1.71 0.39 1.68 0.44 1.67 0.49 0 0.01 1.64 0.55 0 0.01 1.64 0.6 1.6 0.66 1.59 0.72 1.56 0.77 1.53 0.83 1.5 0.87 1.47 0.92 0.01 0 1.44 0.98 1.4 1.02 0 0.01 1.37 1.07 0 0.01 1.33 1.12 0.01 0 1.28 1.17 1.25 1.22 0 0.01 1.21 1.26 1.15 1.32 0.01 0 1.11 1.36 0.01 0.01 1.06 1.4 0.01 0 1 1.46 0.01 0 0.96 1.49 0.01 0.01 0.89 1.53 0.01 0 0.85 1.59 0.79 1.63 0.01 0 0.72 1.67 0.01 0.01 0.66 1.71 0.01 0 0.6 1.75 0.01 0.01 0.54 1.78 0.01 0.01 0.47 1.83 0.01 0 0.4 1.87 0.01 0.01 0.33 1.9 0.01 0.01 0.26 1.95 0.01 0 0.18 1.99 0.01 0 0.1 2.02 0.01 0 0.04 2.07 0.01 0 0 823.68 -0.01 0.69 0 0.68 -0.02 0 -0.01 0.67 -0.01 0 -0.01 0.68 -0.01 0 -0.02 0.66 -0.01 0 -0.03 0.65 -0.02 0 -0.03 0.66 -0.01 0 -0.04 0.64 -0.01 0 -0.06 0.63 -0.01 0 -0.05 0.63 -0.01 0 -0.07 0.62 -0.01 0 -0.08 0.62 -0.01 0 -0.07 0.61 -0.01 0.01 -0.09 0.6 -0.01 0 -0.1 0.6 -0.01 0.01 -0.1 0.58 -0.01 0 -0.11 0.59 -0.01 0.01 -0.12 0.58 -0.01 0 -0.12 0.57 -0.01 0.02 -0.13 0.56 -0.01 0 -0.29 1.13 -0.02 0.01 -0.15 0.56 -0.01 0 -0.15 0.55 -0.01 0 -0.55 1.63 -0.01 0.01 -0.39 1.07 -0.01 0 -0.21 0.53 -0.01 0 -0.2 0.53 -0.01 0 -0.22 0.52 -0.01 0 -0.23 0.52 -0.01 0 -0.23 0.51 -0.01 0 -0.24 0.51 -0.01 0 -0.51 1.01 -0.01 0.01 -0.26 0.49 -0.01 0.01 -0.27 0.49 -0.01 0.01 -0.56 0.98 -0.01 0.01 -0.3 0.49 -0.01 0 -0.29 0.48 -0.01 0.01 -0.31 0.48 -0.01 0.01 -0.31 0.48 -0.01 0 -0.32 0.48 -0.01 0 -0.33 0.48 -0.01 0.01 -0.32 0.47 -0.01 0.01 -0.35 0.46 -0.35 0.48 -0.01 0 -0.36 0.47 -0.01 0 -0.36 0.47 -0.01 0.01 -0.37 0.47 -0.01 0 -0.38 0.46 -0.39 0.47 -0.01 0 -0.4 0.47 -0.4 0.47 -0.01 0 -0.41 0.45 0 0.01 -0.43 0.46 -0.42 0.47 -0.44 0.46 -0.01 0 -0.43 0.46 -0.46 0.46 -0.45 0.47 -1421.74 1421.73 -0.01 0 -33.26 33.26c-152.88,152.87 -404.45,147.89 -557.33,-4.99l-186.69 -186.7 -1.85 -1.8c-465.27,-465.27 -1127.35,-1127.35 -1261.52,-1261.5 -9.87,-9.88 -14.79,-19.73 -14.79,-34.52l0 -823.68c0,-44.4 54.24,-64.13 83.85,-34.53 270.15,271.87 540.91,543.07 811.99,813.97l1.8 1.7 813.81 811.95c19.71,19.71 49.31,19.71 69.05,0z"/>
   <path fill="#1979FF" d="M1746 0.01l0 0 0 0c-360.05,0 -715.17,39.46 -1055.49,108.51 -39.46,9.88 -54.24,54.25 -24.66,83.84l1045.63 1045.63c19.71,19.73 49.33,19.73 69.05,0l1045.63 -1045.63c29.61,-29.59 14.81,-73.97 -24.66,-83.84 -345.25,-73.99 -695.45,-108.51 -1055.5,-108.51l0 0z"/>
  </g>
 </g>
</svg>
