<?xml version="1.0" encoding="UTF-8" standalone="no"?>
<!-- Generator: Adobe Illustrator 24.2.3, SVG Export Plug-In . SVG Version: 6.00 Build 0)  -->

<svg
   version="1.1"
   id="Layer_1"
   x="0px"
   y="0px"
   viewBox="0 0 450 450"
   xml:space="preserve"
   width="450"
   height="450"
   xmlns="http://www.w3.org/2000/svg"
   xmlns:svg="http://www.w3.org/2000/svg"><defs
   id="defs1" />
<style
   type="text/css"
   id="style1">
	.st0{fill:#0052FF;}
	.st1{fill-rule:evenodd;clip-rule:evenodd;fill:#FFFFFF;}
</style>
<g
   id="g1"
   transform="translate(-31,-31)">
	<circle
   class="st0"
   cx="256"
   cy="256"
   r="225"
   id="circle1" />
	<path
   class="st1"
   d="M 98.5,256 C 98.5,343 169,413.5 256,413.5 343,413.5 413.5,343 413.5,256 413.5,169 343,98.5 256,98.5 169,98.5 98.5,169 98.5,256 Z m 117.3,-50.8 c -5.8,0 -10.5,4.7 -10.5,10.5 v 80.5 c 0,5.8 4.7,10.5 10.5,10.5 h 80.5 c 5.8,0 10.5,-4.7 10.5,-10.5 v -80.5 c 0,-5.8 -4.7,-10.5 -10.5,-10.5 z"
   id="path1" />
</g>
</svg>
