<?xml version="1.0" encoding="UTF-8" standalone="no"?>
<svg
   width="138.24001"
   height="138.24001"
   viewBox="0 0 138.24001 138.24001"
   fill="none"
   version="1.1"
   id="svg4"
   xmlns="http://www.w3.org/2000/svg"
   xmlns:svg="http://www.w3.org/2000/svg">
  <defs
     id="defs4" />
  <path
     d="M 117.504,81.094001 103.68,57.132201"
     stroke="#13915f"
     stroke-width="7.8336"
     stroke-linecap="round"
     id="path1" />
  <path
     d="M 124.418,69.109001 H 96.770001"
     stroke="#13915f"
     stroke-width="7.8336"
     stroke-linecap="round"
     id="path2" />
  <path
     d="m 117.504,57.125001 -13.824,23.962"
     stroke="#13915f"
     stroke-width="7.8336"
     stroke-linecap="round"
     id="path3" />
  <path
     fill-rule="evenodd"
     clip-rule="evenodd"
     d="M 14.745601,1.0106474e-6 C 6.601801,1.0106474e-6 1.0106474e-6,6.601801 1.0106474e-6,14.745601 V 123.494 C 1.0106474e-6,131.638 6.601801,138.24 14.745601,138.24 H 116.122 c 12.215,0 22.118,-9.903 22.118,-22.118 V 97.461001 c 0,-2.036 -1.65,-3.687 -3.686,-3.687 H 93.080001 c -8.144,0 -14.746,-6.602 -14.746,-14.745 v -19.8149 c 0,-8.1437 6.602,-14.7455 14.746,-14.7455 H 134.554 c 2.036,0 3.686,-1.6505 3.686,-3.6864 v -18.6638 C 138.24,9.902701 128.337,1.0106474e-6 116.122,1.0106474e-6 Z"
     fill="#13915f"
     id="path4" />
</svg>
