<?xml version="1.0" encoding="UTF-8" standalone="no"?>
<!-- Generator: Adobe Illustrator 27.0.1, SVG Export Plug-In . SVG Version: 6.00 Build 0)  -->

<svg
   version="1.1"
   x="0px"
   y="0px"
   viewBox="0 0 153.5 141.2"
   xml:space="preserve"
   id="svg29"
   width="153.5"
   height="141.2"
   xmlns="http://www.w3.org/2000/svg"
   xmlns:svg="http://www.w3.org/2000/svg"><defs
   id="defs29" />
<style
   type="text/css"
   id="style1">
	.st0{display:none;}
	.st1{fill:#F5841F;}
	.st2{fill:#E27625;}
	.st3{fill:#D7C1B3;}
	.st4{fill:#2F343B;}
	.st5{fill:#CC6228;}
	.st6{fill:#C0AD9E;}
	.st7{fill:#763E1A;}
</style>

<g
   id="MM_Head_background__x28_Do_not_edit_x29_"
   transform="translate(-25.6,-25.6)">
	<g
   id="g1">
		<path
   class="st1"
   d="m 167.4,96.1 6.9,-8.1 -3,-2.2 4.8,-4.4 -3.7,-2.8 4.8,-3.6 -3.1,-2.4 5,-24.4 -7.6,-22.6 m 0,0 -48.8,18.1 v 0 0 H 82 v 0 l -48.8,-18.1 0.3,0.2 -0.3,-0.2 -7.6,22.6 5.1,24.4 -3.2,2.4 4.9,3.6 -3.7,2.8 4.8,4.4 -3,2.2 6.9,8.1 -10.5,32.4 v 0 0 l 9.7,33.1 34.1,-9.4 v -0.1 0.1 0 0 0 0 0 0 0 l 6.6,5.4 13.5,9.2 h 23.1 l 13.5,-9.2 6.6,-5.4 v 0 0 0 0 l 34.2,9.4 9.8,-33.1 v 0 0 L 167.4,96.1 m -96.7,56 v 0 0"
   id="path1" />
	</g>
</g>
<g
   id="Logos"
   transform="translate(-25.6,-25.6)">
	<g
   id="g29">
		<polygon
   class="st2"
   points="171.5,25.6 111.6,69.7 122.7,43.7 "
   id="polygon1" />
		<polygon
   class="st2"
   points="33.2,25.6 92.6,70.1 82,43.7 "
   id="polygon2" />
		<polygon
   class="st2"
   points="168.2,161.5 178,128.4 150,127.9 134,152.1 "
   id="polygon3" />
		<polygon
   class="st2"
   points="70.7,152.1 54.8,127.9 26.9,128.4 36.6,161.5 "
   id="polygon4" />
		<polygon
   class="st2"
   points="93.2,102.7 92.1,66.5 68.9,86.9 59.4,101.2 "
   id="polygon5" />
		<polygon
   class="st2"
   points="111.6,102.7 145.4,101.2 135.9,86.9 112.3,66.1 "
   id="polygon6" />
		<polygon
   class="st2"
   points="70.7,152.1 91.2,142.3 73.5,128.7 "
   id="polygon7" />
		<polygon
   class="st2"
   points="113.6,142.3 134,152.1 131.2,128.7 "
   id="polygon8" />
		<polygon
   class="st3"
   points="115.3,155.5 115.1,161.1 134,152.1 113.6,142.3 "
   id="polygon9" />
		<polygon
   class="st3"
   points="89.6,155.5 91.2,142.3 70.7,152.1 89.7,161.1 "
   id="polygon10" />
		<polygon
   class="st4"
   points="90,119.9 73.1,115 85.1,109.5 "
   id="polygon11" />
		<polygon
   class="st4"
   points="114.7,119.9 119.7,109.5 131.7,115 "
   id="polygon12" />
		<polygon
   class="st5"
   points="70.7,152.1 73.7,127.9 54.8,128.4 "
   id="polygon13" />
		<polygon
   class="st5"
   points="131.1,127.9 134,152.1 150,128.4 "
   id="polygon14" />
		<polygon
   class="st5"
   points="111.6,102.7 114.7,119.9 119.7,109.5 131.7,115 145.4,101.2 "
   id="polygon15" />
		<polygon
   class="st5"
   points="85.1,109.5 90,119.9 93.2,102.7 59.4,101.2 73.1,115 "
   id="polygon16" />
		<polygon
   class="st2"
   points="59.4,101.2 73.5,128.7 73.1,115 "
   id="polygon17" />
		<polygon
   class="st2"
   points="131.7,115 131.2,128.7 145.4,101.2 "
   id="polygon18" />
		<polygon
   class="st2"
   points="94,140.3 94.9,113.5 93.2,102.7 90,119.9 "
   id="polygon19" />
		<polygon
   class="st2"
   points="110.7,140.3 114.7,119.9 111.6,102.7 109.9,113.4 "
   id="polygon20" />
		<polygon
   class="st1"
   points="110.7,140.3 113.6,142.3 131.2,128.7 131.7,115 114.7,119.9 "
   id="polygon21" />
		<polygon
   class="st1"
   points="73.5,128.7 91.2,142.3 94,140.3 90,119.9 73.1,115 "
   id="polygon22" />
		<polygon
   class="st6"
   points="70.7,152.1 77.3,157.5 90.8,166.8 113.9,166.8 127.4,157.5 134,152.1 115.1,161.1 115.3,155.5 113.7,154.2 91,154.2 89.6,155.5 89.7,161.1 "
   id="polygon23" />
		<polygon
   class="st4"
   points="113.7,154.2 115.3,155.5 113.6,142.3 110.7,140.3 94,140.3 91.2,142.3 89.6,155.5 91,154.2 "
   id="polygon24" />
		<polygon
   class="st7"
   points="174.3,88 171.3,85.8 176.1,81.5 172.4,78.6 177.2,75 174.1,72.6 179.1,48.2 171.5,25.6 113.6,68.2 135.9,86.9 167.4,96.1 "
   id="polygon25" />
		<polygon
   class="st7"
   points="30.4,88 37.4,96.1 68.9,86.9 91.2,68.2 33.2,25.6 25.6,48.2 30.7,72.6 27.5,75 32.3,78.7 28.6,81.5 33.4,85.8 "
   id="polygon26" />
		<polygon
   class="st1"
   points="167.4,96.1 135.9,86.9 145.4,101.2 131.2,128.7 150,128.4 178,128.4 "
   id="polygon27" />
		<polygon
   class="st1"
   points="68.9,86.9 37.4,96.1 26.9,128.4 54.8,128.4 73.5,128.7 59.4,101.2 "
   id="polygon28" />
		<polygon
   class="st1"
   points="94,113.5 94,140.3 110.7,140.3 110.8,113.5 111.6,102.7 113.6,68.2 122.7,43.7 82,43.7 91.2,68.2 93.2,102.7 "
   id="polygon29" />
	</g>
</g>
</svg>
