<?xml version="1.0" encoding="UTF-8" standalone="no"?>
<svg
   width="593"
   height="593"
   viewBox="0 0 593 593"
   fill="none"
   version="1.1"
   id="svg1"
   xmlns="http://www.w3.org/2000/svg"
   xmlns:svg="http://www.w3.org/2000/svg">
  <defs
     id="defs1" />
  <path
     d="m 70.0546,543 c 75.5494,0 132.3254,-65.703 166.2084,-117.622 -4.121,11.487 -6.411,22.973 -6.411,34 0,30.325 17.4,51.919 51.74,51.919 47.161,0 97.527,-41.351 123.626,-85.919 -1.832,6.433 -2.747,12.406 -2.747,17.919 0,21.135 11.904,34.46 36.172,34.46 76.465,0 153.387,-135.541 153.387,-254.081 C 592.03,131.3243 545.327,50 428.112,50 222.069,50 0,301.784 0,464.432 0,528.297 34.3405,543 70.0546,543 Z M 357.141,213.568 c 0,-22.973 12.821,-39.054 31.593,-39.054 18.315,0 31.136,16.081 31.136,39.054 0,22.973 -12.821,39.513 -31.136,39.513 -18.772,0 -31.593,-16.54 -31.593,-39.513 z m 97.985,0 c 0,-22.973 12.821,-39.054 31.593,-39.054 18.315,0 31.136,16.081 31.136,39.054 0,22.973 -12.821,39.513 -31.136,39.513 -18.772,0 -31.593,-16.54 -31.593,-39.513 z"
     fill="#ab9ff2"
     id="path1" />
</svg>
