<?xml version="1.0" encoding="UTF-8" standalone="no"?>
<svg
   width="368.70901"
   height="368.70901"
   viewBox="0 0 368.70901 368.70902"
   fill="none"
   version="1.1"
   id="svg11"
   xmlns="http://www.w3.org/2000/svg"
   xmlns:svg="http://www.w3.org/2000/svg">
  <g
     id="g1"
     transform="translate(0,24.366213)">
    <path
       d="m 366.8244,183.08546 c 14.482,-32.46 -57.111,-123.149001 -125.506,-160.932001 -43.111,-29.2699998 -88.034,-25.2487998 -97.132,-12.3969998 -19.967,28.2039998 66.116,52.1029998 123.686,79.9909998 -12.375,5.393 -24.037,15.071001 -30.895,27.448001 -21.463,-23.510001 -68.571,-43.756001 -123.846,-27.448001 -37.248999,10.990001 -68.205999,36.899001 -80.170999,76.032001 -2.907,-1.296 -6.1261,-2.017 -9.5126,-2.017 -12.9498,0 -23.447801,10.534 -23.447801,23.527 0,12.994 10.498001,23.527 23.447801,23.527 2.4003,0 9.9056,-1.615 9.9056,-1.615 l 119.930999,0.872 c -47.963,76.345 -85.866999,87.505 -85.866999,100.732 0,13.226 36.267999,9.642 49.884999,4.712 65.19,-23.601 135.207,-97.156 147.222,-118.33 50.455,6.316 92.858,7.063 102.3,-14.102 z"
       fill="url(#paint0_linear_1758_656)"
       id="path1"
       style="fill:url(#paint0_linear_1758_656)" />
    <path
       fill-rule="evenodd"
       clip-rule="evenodd"
       d="m 267.8674,89.751459 c 0.003,0.001 0.006,0.003 0.009,0.004 2.669,-1.055 2.237,-5.009 1.504,-8.115 -1.684,-7.137 -30.742,-35.928 -58.029,-48.823 -37.182,-17.572 -64.562,-16.666 -68.607,-8.567 7.574,15.575 42.687,30.199 79.358,45.471 15.646,6.516 31.575,13.15 45.771,20.027 -0.002,0.001 -0.004,0.002 -0.006,0.003 z"
       fill="url(#paint1_linear_1758_656)"
       id="path2"
       style="fill:url(#paint1_linear_1758_656)" />
    <path
       fill-rule="evenodd"
       clip-rule="evenodd"
       d="m 220.6834,246.51146 c -7.52,-2.883 -16.014,-5.529 -25.671,-7.929 10.297,-18.486 12.457,-45.854 2.733,-63.157 -13.648,-24.284 -30.779,-37.209 -70.589,-37.209 -21.895,0 -80.846999,7.4 -81.892999,56.778 -0.11,5.181 -0.003,9.929 0.371,14.295 l 107.649999,0.783 c -14.513,23.101 -28.105,40.234 -40.004,53.261 14.287,3.674 26.077,6.758 36.902,9.589 10.27,2.686 19.671,5.145 29.511,7.664 14.843,-10.85 28.796,-22.681 40.99,-34.075 z"
       fill="url(#paint2_linear_1758_656)"
       id="path3"
       style="fill:url(#paint2_linear_1758_656)" />
    <path
       d="m 31.523401,204.21646 c 4.398,37.509 25.644,52.209 69.057999,56.56 43.414,4.35 68.317,1.432 101.471,4.458 27.691,2.528 52.415,16.686 61.587,11.794 8.254,-4.404 3.636,-20.312 -7.409,-30.519 -14.318,-13.23 -34.134,-22.428 -69.001,-25.693 6.949,-19.089 5.002,-45.855 -5.79,-60.417 -15.604,-21.056 -44.405,-30.575 -80.858,-26.416 -38.083999,4.345 -74.576599,23.158 -69.057999,70.233 z"
       fill="url(#paint3_linear_1758_656)"
       id="path4"
       style="fill:url(#paint3_linear_1758_656)" />
  </g>
  <defs
     id="defs11">
    <linearGradient
       id="paint0_linear_1758_656"
       x1="180.439"
       y1="250.35201"
       x2="435.479"
       y2="322.43301"
       gradientUnits="userSpaceOnUse"
       gradientTransform="translate(-71.645599,-96.011541)">
      <stop
         stop-color="#8697FF"
         id="stop4" />
      <stop
         offset="1"
         stop-color="#ABB7FF"
         id="stop5" />
    </linearGradient>
    <linearGradient
       id="paint1_linear_1758_656"
       x1="392.42801"
       y1="245.489"
       x2="207.87601"
       y2="61.1077"
       gradientUnits="userSpaceOnUse"
       gradientTransform="translate(-71.645599,-96.011541)">
      <stop
         stop-color="#8697FF"
         id="stop6" />
      <stop
         offset="1"
         stop-color="#5156D8"
         stop-opacity="0"
         id="stop7" />
    </linearGradient>
    <linearGradient
       id="paint2_linear_1758_656"
       x1="297.44601"
       y1="348.96701"
       x2="120.465"
       y2="247.558"
       gradientUnits="userSpaceOnUse"
       gradientTransform="translate(-71.645599,-96.011541)">
      <stop
         stop-color="#465EED"
         id="stop8" />
      <stop
         offset="1"
         stop-color="#8697FF"
         stop-opacity="0"
         id="stop9" />
    </linearGradient>
    <linearGradient
       id="paint3_linear_1758_656"
       x1="195.658"
       y1="248.44299"
       x2="315.58099"
       y2="400.306"
       gradientUnits="userSpaceOnUse"
       gradientTransform="translate(-71.645599,-96.011541)">
      <stop
         stop-color="#8898FF"
         id="stop10" />
      <stop
         offset="0.983895"
         stop-color="#6277F1"
         id="stop11" />
    </linearGradient>
  </defs>
</svg>
