<?xml version="1.0" encoding="UTF-8" standalone="no"?>
<!-- Generator: Adobe Illustrator 16.0.0, SVG Export Plug-In . SVG Version: 6.00 Build 0)  -->

<svg
   version="1.1"
   id="Your_design"
   x="0px"
   y="0px"
   width="126.61283"
   height="126.611"
   viewBox="0 0 126.61284 126.611"
   enable-background="new 0 0 632.014 126.611"
   xml:space="preserve"
   xmlns="http://www.w3.org/2000/svg"
   xmlns:svg="http://www.w3.org/2000/svg"><defs
   id="defs9" />
<polygon
   fill="#f3ba2f"
   points="62.759,0 23.864,38.896 38.171,53.203 62.759,28.616 87.36,53.216 101.667,38.909 "
   id="polygon1"
   transform="translate(0.54672303)" />
<rect
   x="44.762665"
   y="24.52886"
   transform="rotate(45)"
   fill="#f3ba2f"
   width="20.232805"
   height="20.233805"
   id="rect1"
   style="stroke-width:0.99999" />
<polygon
   fill="#f3ba2f"
   points="101.667,87.703 62.759,126.611 23.863,87.716 23.843,87.696 38.171,73.408 62.759,97.995 87.359,73.396 101.674,87.695 "
   id="polygon2"
   transform="translate(0.54672303)" />
<rect
   x="-44.761864"
   y="-134.29573"
   transform="rotate(135)"
   fill="#f3ba2f"
   width="20.233805"
   height="20.232805"
   id="rect2"
   style="stroke-width:0.99999" />
<polygon
   fill="#f3ba2f"
   points="52.029,59.509 50.797,60.742 48.254,63.285 48.254,63.285 48.234,63.305 48.254,63.326 62.759,77.831 77.277,63.313 77.284,63.305 77.271,63.298 77.277,63.298 62.759,48.78 52.03,59.509 "
   id="polygon3"
   transform="translate(0.54672303)" />







</svg>
