<svg xmlns="http://www.w3.org/2000/svg" viewBox="0 0 520 520" class="w-[80%] h-[80%]"><g filter="url(#filter0_b_11_50)"><mask id="path-1-outside-1_11_50" maskUnits="userSpaceOnUse" x="0" y="0" width="520" height="520" fill="black"><rect fill="white" width="520" height="520"></rect><path fill-rule="evenodd" clip-rule="evenodd" d="M273.841 507.907C270.94 512.92 265.618 516.001 259.863 516C254.108 515.999 248.787 512.915 245.889 507.9L6.20216 93.2614C4.03603 89.5142 3.43822 85.0513 4.54078 80.8587C5.64334 76.6661 8.35553 73.0887 12.0783 70.9168C85.0229 28.3585 169.715 4 260 4C350.285 4 434.977 28.3585 507.922 70.9168C511.646 73.0894 514.358 76.6684 515.46 80.8626C516.562 85.0567 515.963 89.5208 513.794 93.2682L273.841 507.907ZM265.724 457.086C266.427 455.972 267.222 454.598 268.188 452.929L447.371 143.301C439.603 144.151 431.68 143.99 423.795 143.179C397.869 140.512 368.288 130.218 339.454 120.184L339.414 120.17C336.286 119.082 333.168 117.997 330.064 116.925C297.2 105.575 264.743 95.1847 234.037 93.24C208.681 91.6341 185.272 95.8352 164.284 109.961C162.174 111.381 161.307 114.034 162.048 116.468L265.724 457.086ZM207.295 376.335L126.667 111.44C124.806 105.327 126.657 98.6811 131.402 94.4393C163.226 65.9897 199.791 58.3692 236.066 60.6667C271.69 62.9229 308.008 74.8102 340.547 86.0473C343.513 87.0717 346.441 88.0878 349.332 89.0908L349.373 89.1049C379.271 99.4797 405.127 108.451 427.078 110.71C438.777 111.913 448.05 111.017 455.41 108.144C456.622 107.67 457.848 107.246 459.074 106.821C464.309 105.007 469.556 103.189 473.812 97.5788C474.705 95.9564 475.161 94.8857 475.201 93.817C475.249 92.5248 474.858 91.2029 474.115 90.1446C473.258 88.9242 471.75 88.1557 468.735 86.6188C406.017 54.6521 335.114 36.6375 260 36.6375C184.882 36.6375 113.974 54.6544 51.2536 86.6247C48.2395 88.161 46.7325 88.9292 45.8756 90.1491C45.1326 91.2069 44.7417 92.5284 44.7896 93.8202C44.8448 95.3099 45.7085 96.8039 47.4357 99.792L207.295 376.335Z"></path></mask><path fill-rule="evenodd" clip-rule="evenodd" d="M273.841 507.907C270.94 512.92 265.618 516.001 259.863 516C254.108 515.999 248.787 512.915 245.889 507.9L6.20216 93.2614C4.03603 89.5142 3.43822 85.0513 4.54078 80.8587C5.64334 76.6661 8.35553 73.0887 12.0783 70.9168C85.0229 28.3585 169.715 4 260 4C350.285 4 434.977 28.3585 507.922 70.9168C511.646 73.0894 514.358 76.6684 515.46 80.8626C516.562 85.0567 515.963 89.5208 513.794 93.2682L273.841 507.907ZM265.724 457.086C266.427 455.972 267.222 454.598 268.188 452.929L447.371 143.301C439.603 144.151 431.68 143.99 423.795 143.179C397.869 140.512 368.288 130.218 339.454 120.184L339.414 120.17C336.286 119.082 333.168 117.997 330.064 116.925C297.2 105.575 264.743 95.1847 234.037 93.24C208.681 91.6341 185.272 95.8352 164.284 109.961C162.174 111.381 161.307 114.034 162.048 116.468L265.724 457.086ZM207.295 376.335L126.667 111.44C124.806 105.327 126.657 98.6811 131.402 94.4393C163.226 65.9897 199.791 58.3692 236.066 60.6667C271.69 62.9229 308.008 74.8102 340.547 86.0473C343.513 87.0717 346.441 88.0878 349.332 89.0908L349.373 89.1049C379.271 99.4797 405.127 108.451 427.078 110.71C438.777 111.913 448.05 111.017 455.41 108.144C456.622 107.67 457.848 107.246 459.074 106.821C464.309 105.007 469.556 103.189 473.812 97.5788C474.705 95.9564 475.161 94.8857 475.201 93.817C475.249 92.5248 474.858 91.2029 474.115 90.1446C473.258 88.9242 471.75 88.1557 468.735 86.6188C406.017 54.6521 335.114 36.6375 260 36.6375C184.882 36.6375 113.974 54.6544 51.2536 86.6247C48.2395 88.161 46.7325 88.9292 45.8756 90.1491C45.1326 91.2069 44.7417 92.5284 44.7896 93.8202C44.8448 95.3099 45.7085 96.8039 47.4357 99.792L207.295 376.335Z" fill="url(#paint0_linear_11_50)"></path><path d="M273.841 507.907L270.379 505.904L270.379 505.904L273.841 507.907ZM245.889 507.9L249.352 505.899L249.352 505.899L245.889 507.9ZM6.20216 93.2614L9.6652 91.2596L9.6652 91.2596L6.20216 93.2614ZM4.54078 80.8587L8.40925 81.8761L8.40925 81.876L4.54078 80.8587ZM12.0783 70.9168L14.094 74.3717L14.094 74.3717L12.0783 70.9168ZM507.922 70.9168L509.938 67.4618L509.938 67.4618L507.922 70.9168ZM515.46 80.8626L511.592 81.8789L511.592 81.879L515.46 80.8626ZM513.794 93.2682L510.332 91.2647L510.332 91.2647L513.794 93.2682ZM268.188 452.929L271.65 454.932L271.65 454.932L268.188 452.929ZM265.724 457.086L261.897 458.25C262.353 459.747 263.64 460.841 265.19 461.05C266.741 461.259 268.271 460.544 269.106 459.221L265.724 457.086ZM447.371 143.301L450.833 145.304C451.588 143.999 451.545 142.38 450.722 141.117C449.899 139.853 448.435 139.16 446.936 139.324L447.371 143.301ZM423.795 143.179L424.204 139.2L424.204 139.2L423.795 143.179ZM339.454 120.184L338.139 123.962L338.14 123.962L339.454 120.184ZM339.414 120.17L340.729 116.393L340.728 116.392L339.414 120.17ZM330.064 116.925L328.758 120.706L328.758 120.706L330.064 116.925ZM234.037 93.24L233.785 97.232L233.785 97.232L234.037 93.24ZM164.284 109.961L162.05 106.643L162.05 106.643L164.284 109.961ZM162.048 116.468L165.875 115.303L165.875 115.303L162.048 116.468ZM126.667 111.44L130.493 110.276L130.493 110.276L126.667 111.44ZM207.295 376.335L203.832 378.337C204.849 380.097 207.024 380.814 208.888 380.004C210.753 379.194 211.713 377.115 211.121 375.17L207.295 376.335ZM131.402 94.4393L128.736 91.4572L128.736 91.4572L131.402 94.4393ZM236.066 60.6667L235.813 64.6587L235.813 64.6587L236.066 60.6667ZM340.547 86.0473L341.853 82.2664L341.853 82.2664L340.547 86.0473ZM349.332 89.0908L350.644 85.312L350.643 85.3118L349.332 89.0908ZM349.373 89.1049L348.061 92.8836L348.061 92.8839L349.373 89.1049ZM427.078 110.71L427.488 106.731L427.488 106.731L427.078 110.71ZM455.41 108.144L456.865 111.87L456.865 111.87L455.41 108.144ZM459.074 106.821L457.765 103.041L457.765 103.041L459.074 106.821ZM473.812 97.5788L476.999 99.9964C477.117 99.8412 477.223 99.6776 477.317 99.5069L473.812 97.5788ZM475.201 93.817L479.198 93.9667L479.198 93.9666L475.201 93.817ZM474.115 90.1446L470.842 92.4433L470.842 92.4433L474.115 90.1446ZM468.735 86.6188L470.551 83.055L470.551 83.055L468.735 86.6188ZM51.2536 86.6247L53.0701 90.1884L53.0701 90.1884L51.2536 86.6247ZM45.8756 90.1491L42.6024 87.85L42.6024 87.85L45.8756 90.1491ZM44.7896 93.8202L40.7923 93.9685L40.7923 93.9685L44.7896 93.8202ZM47.4357 99.792L43.9727 101.794L43.9727 101.794L47.4357 99.792ZM259.862 520C267.056 520.002 273.693 516.15 277.303 509.911L270.379 505.904C268.188 509.69 264.179 512.001 259.864 512L259.862 520ZM242.426 509.902C246.033 516.143 252.668 519.998 259.862 520L259.864 512C255.548 511.999 251.541 509.686 249.352 505.899L242.426 509.902ZM2.73913 95.2633L242.426 509.902L249.352 505.899L9.6652 91.2596L2.73913 95.2633ZM0.67231 79.8414C-0.698127 85.0527 0.04398 90.6009 2.73913 95.2633L9.6652 91.2596C8.02809 88.4275 7.57457 85.05 8.40925 81.8761L0.67231 79.8414ZM10.0625 67.4618C5.41737 70.1719 2.04294 74.6294 0.672308 79.8414L8.40925 81.876C9.24374 78.7028 11.2937 76.0055 14.094 74.3717L10.0625 67.4618ZM260 0C168.986 0 83.6009 24.5571 10.0625 67.4618L14.094 74.3717C86.4448 32.1599 170.444 8 260 8V0ZM509.938 67.4618C436.399 24.5571 351.014 0 260 0V8C349.556 8 433.555 32.1598 505.906 74.3717L509.938 67.4618ZM519.329 79.8462C517.959 74.6322 514.584 70.1728 509.938 67.4618L505.906 74.3717C508.707 76.006 510.758 78.7045 511.592 81.8789L519.329 79.8462ZM517.256 95.2717C519.954 90.6092 520.699 85.0594 519.329 79.8461L511.592 81.879C512.426 85.0541 511.971 88.4325 510.332 91.2647L517.256 95.2717ZM277.303 509.911L517.256 95.2717L510.332 91.2647L270.379 505.904L277.303 509.911ZM264.726 450.925C263.746 452.618 262.995 453.916 262.342 454.95L269.106 459.221C269.86 458.028 270.698 456.578 271.65 454.932L264.726 450.925ZM443.909 141.297L264.726 450.925L271.65 454.932L450.833 145.304L443.909 141.297ZM423.385 147.158C431.483 147.991 439.696 148.164 447.806 147.277L446.936 139.324C439.51 140.137 431.878 139.989 424.204 139.2L423.385 147.158ZM338.14 123.962C366.84 133.949 396.899 144.433 423.385 147.158L424.204 139.2C398.838 136.59 369.735 126.486 340.769 116.407L338.14 123.962ZM338.099 123.948L338.139 123.962L340.769 116.407L340.729 116.393L338.099 123.948ZM328.758 120.706C331.857 121.776 334.971 122.859 338.099 123.948L340.728 116.392C337.602 115.304 334.479 114.218 331.369 113.144L328.758 120.706ZM233.785 97.232C263.877 99.1379 295.852 109.342 328.758 120.706L331.369 113.144C298.549 101.809 265.61 91.2316 234.29 89.248L233.785 97.232ZM166.517 113.279C186.583 99.7746 209.048 95.6653 233.785 97.232L234.29 89.248C208.315 87.6028 183.961 91.8958 162.05 106.643L166.517 113.279ZM165.875 115.303C165.616 114.456 165.947 113.663 166.517 113.279L162.05 106.643C158.4 109.099 156.997 113.612 158.221 117.633L165.875 115.303ZM269.551 455.921L165.875 115.303L158.221 117.633L261.897 458.25L269.551 455.921ZM122.84 112.605L203.468 377.5L211.121 375.17L130.493 110.276L122.84 112.605ZM128.736 91.4572C122.824 96.7427 120.528 105.009 122.84 112.605L130.493 110.276C129.084 105.645 130.49 100.62 134.068 97.4215L128.736 91.4572ZM236.318 56.6747C199.267 54.328 161.554 62.1195 128.736 91.4572L134.068 97.4215C164.899 69.8599 200.314 62.4104 235.813 64.6587L236.318 56.6747ZM341.853 82.2664C309.353 71.0428 272.555 58.9697 236.318 56.6747L235.813 64.6587C270.825 66.8761 306.664 78.5775 339.241 89.8282L341.853 82.2664ZM350.643 85.3118C347.753 84.309 344.822 83.2919 341.853 82.2664L339.241 89.8282C342.204 90.8514 345.13 91.8666 348.021 92.8697L350.643 85.3118ZM350.685 85.3262L350.644 85.312L348.02 92.8695L348.061 92.8836L350.685 85.3262ZM427.488 106.731C406.102 104.531 380.743 95.7564 350.684 85.326L348.061 92.8839C377.8 103.203 404.151 112.372 426.669 114.689L427.488 106.731ZM453.955 104.417C447.388 106.981 438.81 107.895 427.488 106.731L426.669 114.689C438.745 115.931 448.712 115.052 456.865 111.87L453.955 104.417ZM457.765 103.041C456.55 103.462 455.251 103.912 453.955 104.417L456.865 111.87C457.993 111.429 459.145 111.029 460.384 110.6L457.765 103.041ZM470.625 95.1613C467.174 99.7101 463.024 101.219 457.765 103.041L460.384 110.6C465.594 108.795 471.938 106.668 476.999 99.9964L470.625 95.1613ZM471.203 93.6674C471.202 93.6994 471.198 94.0315 470.307 95.6507L477.317 99.5069C478.211 97.8814 479.119 96.072 479.198 93.9667L471.203 93.6674ZM470.842 92.4433C471.083 92.7865 471.219 93.2485 471.203 93.6675L479.198 93.9666C479.279 91.8011 478.634 89.6192 477.389 87.8459L470.842 92.4433ZM466.918 90.1826C468.488 90.9825 469.438 91.4704 470.118 91.8947C470.434 92.0914 470.613 92.2278 470.718 92.3182C470.812 92.3996 470.838 92.438 470.842 92.4433L477.389 87.8459C476.529 86.6214 475.441 85.7859 474.351 85.106C473.309 84.4568 471.997 83.792 470.551 83.055L466.918 90.1826ZM260 40.6375C334.467 40.6375 404.749 58.4955 466.919 90.1826L470.551 83.055C407.285 50.8087 335.761 32.6375 260 32.6375V40.6375ZM53.0701 90.1884C115.242 58.4977 185.529 40.6375 260 40.6375V32.6375C184.235 32.6375 112.707 50.811 49.4371 83.061L53.0701 90.1884ZM49.1488 92.4482C49.1526 92.4429 49.1787 92.4045 49.2726 92.3232C49.3769 92.2328 49.5567 92.0964 49.8719 91.8999C50.5522 91.4758 51.5013 90.9881 53.0701 90.1884L49.4371 83.061C47.9918 83.7976 46.6804 84.4622 45.6394 85.1112C44.5494 85.7908 43.4621 86.626 42.6024 87.85L49.1488 92.4482ZM48.7868 93.6719C48.7713 93.2531 48.9079 92.7912 49.1488 92.4482L42.6024 87.85C41.3573 89.6227 40.712 91.8037 40.7923 93.9685L48.7868 93.6719ZM50.8987 97.7901C50.0008 96.2368 49.4553 95.2864 49.1056 94.5424C48.9429 94.1964 48.8631 93.9774 48.8231 93.8402C48.804 93.775 48.7954 93.733 48.7914 93.7095C48.7875 93.687 48.787 93.6758 48.7868 93.6719L40.7923 93.9685C40.8481 95.4727 41.3161 96.777 41.8657 97.946C42.3934 99.0685 43.1434 100.359 43.9727 101.794L50.8987 97.7901ZM210.758 374.333L50.8987 97.7901L43.9727 101.794L203.832 378.337L210.758 374.333Z" fill="#F5F5F5" mask="url(#path-1-outside-1_11_50)"></path></g><defs><filter id="filter0_b_11_50" x="-8" y="-8" width="536" height="536" filterUnits="userSpaceOnUse" color-interpolation-filters="sRGB"><feFlood flood-opacity="0" result="BackgroundImageFix"></feFlood><feGaussianBlur in="BackgroundImageFix" stdDeviation="4"></feGaussianBlur><feComposite in2="SourceAlpha" operator="in" result="effect1_backgroundBlur_11_50"></feComposite><feBlend mode="normal" in="SourceGraphic" in2="effect1_backgroundBlur_11_50" result="shape"></feBlend></filter><linearGradient id="paint0_linear_11_50" x1="260" y1="4" x2="260" y2="516" gradientUnits="userSpaceOnUse"><stop stop-color="#66B95F"></stop><stop offset="1" stop-color="#95CE96"></stop></linearGradient></defs></svg>